<svg width="32" height="32" viewBox="0 0 24 24" fill="none" xmlns="http://www.w3.org/2000/svg">
  <path d="M21.731 2.269a2.625 2.625 0 0 1 0 3.712l-1.157 1.157 2.625 2.625a.75.75 0 0 1 0 1.061l-1.5 1.5a.75.75 0 0 1-1.06 0l-2.625-2.625-4.509 4.509a2.625 2.625 0 0 1-3.712 0l-1.5-1.5a2.625 2.625 0 0 1 0-3.712l4.509-4.509-2.625-2.625a.75.75 0 0 1 0-1.06l1.5-1.5a.75.75 0 0 1 1.061 0l2.625 2.625 1.157-1.157a2.625 2.625 0 0 1 3.712 0Z" fill="#10b981"/>
  <path d="m10.5 13.5-8.25 8.25a.75.75 0 0 0 1.06 1.06l8.25-8.25" stroke="#10b981" stroke-width="1.5" stroke-linecap="round"/>
</svg>
